HIERARCHY
ROOT mixamorig:Hips
{
	OFFSET -0.000008 104.274872 1.554316
	CHANNELS 6 Xposition Yposition Zposition Xrotation Yrotation Zrotation
	JOINT mixamorig:Spine
	{
		OFFSET -0.000005 10.181595 0.131519
		CHANNELS 6 Xposition Yposition Zposition Xrotation Yrotation Zrotation
		JOINT mixamorig:Spine1
		{
			OFFSET -0.000000 9.893959 -1.470707
			CHANNELS 6 Xposition Yposition Zposition Xrotation Yrotation Zrotation
			JOINT mixamorig:Spine2
			{
				OFFSET -0.000000 9.220757 -1.370641
				CHANNELS 6 Xposition Yposition Zposition Xrotation Yrotation Zrotation
				JOINT mixamorig:Neck
				{
					OFFSET 0.000001 16.740417 -2.049036
					CHANNELS 6 Xposition Yposition Zposition Xrotation Yrotation Zrotation
					JOINT mixamorig:Head
					{
						OFFSET 0.000000 9.617874 1.685006
						CHANNELS 6 Xposition Yposition Zposition Xrotation Yrotation Zrotation
						JOINT mixamorig:HeadTop_End
						{
							OFFSET 0.000002 22.037354 7.501101
							CHANNELS 6 Xposition Yposition Zposition Xrotation Yrotation Zrotation
							End Site
							{
								OFFSET 0.000168 2310.654297 -282.823242
							}
						}
					}
				}
				JOINT mixamorig:RightShoulder
				{
					OFFSET -4.569970 11.014908 -2.160885
					CHANNELS 6 Xposition Yposition Zposition Xrotation Yrotation Zrotation
					JOINT mixamorig:RightArm
					{
						OFFSET -10.592851 -0.524811 -2.232101
						CHANNELS 6 Xposition Yposition Zposition Xrotation Yrotation Zrotation
						JOINT mixamorig:RightForeArm
						{
							OFFSET -27.841511 0.000031 -0.000004
							CHANNELS 6 Xposition Yposition Zposition Xrotation Yrotation Zrotation
							JOINT mixamorig:RightHand
							{
								OFFSET -28.328831 -0.000015 0.000015
								CHANNELS 6 Xposition Yposition Zposition Xrotation Yrotation Zrotation
								JOINT mixamorig:RightHandThumb1
								{
									OFFSET -2.464806 -1.573990 2.681852
									CHANNELS 6 Xposition Yposition Zposition Xrotation Yrotation Zrotation
									JOINT mixamorig:RightHandThumb2
									{
										OFFSET -3.215179 -1.872803 1.924282
										CHANNELS 6 Xposition Yposition Zposition Xrotation Yrotation Zrotation
										JOINT mixamorig:RightHandThumb3
										{
											OFFSET -2.654831 -1.527969 1.512609
											CHANNELS 6 Xposition Yposition Zposition Xrotation Yrotation Zrotation
											JOINT mixamorig:RightHandThumb4
											{
												OFFSET -2.018814 -1.152008 1.108052
												CHANNELS 6 Xposition Yposition Zposition Xrotation Yrotation Zrotation
												End Site
												{
													OFFSET -188.809540 -114.533607 132.431396
												}
											}
										}
									}
								}
								JOINT mixamorig:RightHandIndex1
								{
									OFFSET -9.108284 -0.517868 2.259835
									CHANNELS 6 Xposition Yposition Zposition Xrotation Yrotation Zrotation
									JOINT mixamorig:RightHandIndex2
									{
										OFFSET -3.699989 0.000000 0.001215
										CHANNELS 6 Xposition Yposition Zposition Xrotation Yrotation Zrotation
										JOINT mixamorig:RightHandIndex3
										{
											OFFSET -2.850006 0.000031 -0.000522
											CHANNELS 6 Xposition Yposition Zposition Xrotation Yrotation Zrotation
											JOINT mixamorig:RightHandIndex4
											{
												OFFSET -2.772186 -0.000015 -0.000020
												CHANNELS 6 Xposition Yposition Zposition Xrotation Yrotation Zrotation
												End Site
												{
													OFFSET -277.218445 0.000000 -0.050231
												}
											}
										}
									}
								}
								JOINT mixamorig:RightHandMiddle1
								{
									OFFSET -9.532516 -0.000031 -0.000023
									CHANNELS 6 Xposition Yposition Zposition Xrotation Yrotation Zrotation
									JOINT mixamorig:RightHandMiddle2
									{
										OFFSET -3.700005 -0.000015 0.003713
										CHANNELS 6 Xposition Yposition Zposition Xrotation Yrotation Zrotation
										JOINT mixamorig:RightHandMiddle3
										{
											OFFSET -2.949974 0.000015 -0.002054
											CHANNELS 6 Xposition Yposition Zposition Xrotation Yrotation Zrotation
											JOINT mixamorig:RightHandMiddle4
											{
												OFFSET -2.946640 0.000000 -0.000156
												CHANNELS 6 Xposition Yposition Zposition Xrotation Yrotation Zrotation
												End Site
												{
													OFFSET -294.664337 0.000000 -0.113670
												}
											}
										}
									}
								}
								JOINT mixamorig:RightHandRing1
								{
									OFFSET -9.103600 -0.043076 -1.865134
									CHANNELS 6 Xposition Yposition Zposition Xrotation Yrotation Zrotation
									JOINT mixamorig:RightHandRing2
									{
										OFFSET -3.379288 0.000000 -0.001055
										CHANNELS 6 Xposition Yposition Zposition Xrotation Yrotation Zrotation
										JOINT mixamorig:RightHandRing3
										{
											OFFSET -2.889687 -0.000015 0.000379
											CHANNELS 6 Xposition Yposition Zposition Xrotation Yrotation Zrotation
											JOINT mixamorig:RightHandRing4
											{
												OFFSET -2.638809 -0.000015 0.000941
												CHANNELS 6 Xposition Yposition Zposition Xrotation Yrotation Zrotation
												End Site
												{
													OFFSET -263.880371 0.000000 0.516020
												}
											}
										}
									}
								}
								JOINT mixamorig:RightHandPinky1
								{
									OFFSET -8.076683 -0.486710 -3.806280
									CHANNELS 6 Xposition Yposition Zposition Xrotation Yrotation Zrotation
									JOINT mixamorig:RightHandPinky2
									{
										OFFSET -3.600014 -0.000015 -0.003747
										CHANNELS 6 Xposition Yposition Zposition Xrotation Yrotation Zrotation
										JOINT mixamorig:RightHandPinky3
										{
											OFFSET -2.099983 0.000000 -0.005739
											CHANNELS 6 Xposition Yposition Zposition Xrotation Yrotation Zrotation
											JOINT mixamorig:RightHandPinky4
											{
												OFFSET -2.115768 -0.000031 -0.003680
												CHANNELS 6 Xposition Yposition Zposition Xrotation Yrotation Zrotation
												End Site
												{
													OFFSET -211.577087 0.000000 -0.350686
												}
											}
										}
									}
								}
							}
						}
					}
				}
				JOINT mixamorig:LeftShoulder
				{
					OFFSET 4.570447 11.014725 -2.160855
					CHANNELS 6 Xposition Yposition Zposition Xrotation Yrotation Zrotation
					JOINT mixamorig:LeftArm
					{
						OFFSET 10.592371 -0.524597 -2.232119
						CHANNELS 6 Xposition Yposition Zposition Xrotation Yrotation Zrotation
						JOINT mixamorig:LeftForeArm
						{
							OFFSET 27.841532 -0.000031 0.000026
							CHANNELS 6 Xposition Yposition Zposition Xrotation Yrotation Zrotation
							JOINT mixamorig:LeftHand
							{
								OFFSET 28.328846 -0.000061 0.000022
								CHANNELS 6 Xposition Yposition Zposition Xrotation Yrotation Zrotation
								JOINT mixamorig:LeftHandThumb1
								{
									OFFSET 2.466141 -1.576172 2.681732
									CHANNELS 6 Xposition Yposition Zposition Xrotation Yrotation Zrotation
									JOINT mixamorig:LeftHandThumb2
									{
										OFFSET 3.217812 -1.872070 1.916482
										CHANNELS 6 Xposition Yposition Zposition Xrotation Yrotation Zrotation
										JOINT mixamorig:LeftHandThumb3
										{
											OFFSET 2.656029 -1.528778 1.514513
											CHANNELS 6 Xposition Yposition Zposition Xrotation Yrotation Zrotation
											JOINT mixamorig:LeftHandThumb4
											{
												OFFSET 2.020889 -1.154053 1.115139
												CHANNELS 6 Xposition Yposition Zposition Xrotation Yrotation Zrotation
												End Site
												{
													OFFSET 190.885437 -115.081749 130.048782
												}
											}
										}
									}
								}
								JOINT mixamorig:LeftHandIndex1
								{
									OFFSET 9.109314 -0.518021 2.259871
									CHANNELS 6 Xposition Yposition Zposition Xrotation Yrotation Zrotation
									JOINT mixamorig:LeftHandIndex2
									{
										OFFSET 3.699989 0.000000 -0.000322
										CHANNELS 6 Xposition Yposition Zposition Xrotation Yrotation Zrotation
										JOINT mixamorig:LeftHandIndex3
										{
											OFFSET 2.850006 0.000000 0.000352
											CHANNELS 6 Xposition Yposition Zposition Xrotation Yrotation Zrotation
											JOINT mixamorig:LeftHandIndex4
											{
												OFFSET 2.774864 -0.000031 -0.000027
												CHANNELS 6 Xposition Yposition Zposition Xrotation Yrotation Zrotation
												End Site
												{
													OFFSET 277.486267 0.000000 -0.009857
												}
											}
										}
									}
								}
								JOINT mixamorig:LeftHandMiddle1
								{
									OFFSET 9.533394 0.000061 0.000044
									CHANNELS 6 Xposition Yposition Zposition Xrotation Yrotation Zrotation
									JOINT mixamorig:LeftHandMiddle2
									{
										OFFSET 3.699989 -0.000015 -0.000231
										CHANNELS 6 Xposition Yposition Zposition Xrotation Yrotation Zrotation
										JOINT mixamorig:LeftHandMiddle3
										{
											OFFSET 2.949997 -0.000015 -0.000059
											CHANNELS 6 Xposition Yposition Zposition Xrotation Yrotation Zrotation
											JOINT mixamorig:LeftHandMiddle4
											{
												OFFSET 2.952896 0.000031 0.000063
												CHANNELS 6 Xposition Yposition Zposition Xrotation Yrotation Zrotation
												End Site
												{
													OFFSET 295.289337 0.000000 0.022810
												}
											}
										}
									}
								}
								JOINT mixamorig:LeftHandRing1
								{
									OFFSET 9.104523 -0.042999 -1.865074
									CHANNELS 6 Xposition Yposition Zposition Xrotation Yrotation Zrotation
									JOINT mixamorig:LeftHandRing2
									{
										OFFSET 3.150009 -0.000031 0.000043
										CHANNELS 6 Xposition Yposition Zposition Xrotation Yrotation Zrotation
										JOINT mixamorig:LeftHandRing3
										{
											OFFSET 2.949982 -0.000015 0.000040
											CHANNELS 6 Xposition Yposition Zposition Xrotation Yrotation Zrotation
											JOINT mixamorig:LeftHandRing4
											{
												OFFSET 2.644348 0.000000 0.000057
												CHANNELS 6 Xposition Yposition Zposition Xrotation Yrotation Zrotation
												End Site
												{
													OFFSET 264.434631 0.000000 0.012105
												}
											}
										}
									}
								}
								JOINT mixamorig:LeftHandPinky1
								{
									OFFSET 8.077789 -0.486847 -3.806259
									CHANNELS 6 Xposition Yposition Zposition Xrotation Yrotation Zrotation
									JOINT mixamorig:LeftHandPinky2
									{
										OFFSET 3.599953 0.000031 0.014727
										CHANNELS 6 Xposition Yposition Zposition Xrotation Yrotation Zrotation
										JOINT mixamorig:LeftHandPinky3
										{
											OFFSET 2.100021 0.000015 0.007705
											CHANNELS 6 Xposition Yposition Zposition Xrotation Yrotation Zrotation
											JOINT mixamorig:LeftHandPinky4
											{
												OFFSET 2.125504 0.000031 0.007517
												CHANNELS 6 Xposition Yposition Zposition Xrotation Yrotation Zrotation
												End Site
												{
													OFFSET 212.550781 0.000000 0.625752
												}
											}
										}
									}
								}
							}
						}
					}
				}
			}
		}
	}
	JOINT mixamorig:RightUpLeg
	{
		OFFSET -8.207787 -6.751648 -1.599560
		CHANNELS 6 Xposition Yposition Zposition Xrotation Yrotation Zrotation
		JOINT mixamorig:RightLeg
		{
			OFFSET -0.000002 -44.370117 0.345942
			CHANNELS 6 Xposition Yposition Zposition Xrotation Yrotation Zrotation
			JOINT mixamorig:RightFoot
			{
				OFFSET 0.000003 -44.423679 -3.043532
				CHANNELS 6 Xposition Yposition Zposition Xrotation Yrotation Zrotation
				JOINT mixamorig:RightToeBase
				{
					OFFSET -0.000002 -8.728671 10.710558
					CHANNELS 6 Xposition Yposition Zposition Xrotation Yrotation Zrotation
					JOINT mixamorig:RightToe_End
					{
						OFFSET -0.000001 -0.000679 9.278119
						CHANNELS 6 Xposition Yposition Zposition Xrotation Yrotation Zrotation
						End Site
						{
							OFFSET 0.000000 -0.067690 927.812134
						}
					}
				}
			}
		}
	}
	JOINT mixamorig:LeftUpLeg
	{
		OFFSET 8.207793 -6.751686 -1.599556
		CHANNELS 6 Xposition Yposition Zposition Xrotation Yrotation Zrotation
		JOINT mixamorig:LeftLeg
		{
			OFFSET -0.000004 -44.370014 0.346954
			CHANNELS 6 Xposition Yposition Zposition Xrotation Yrotation Zrotation
			JOINT mixamorig:LeftFoot
			{
				OFFSET -0.000001 -44.423672 -3.044401
				CHANNELS 6 Xposition Yposition Zposition Xrotation Yrotation Zrotation
				JOINT mixamorig:LeftToeBase
				{
					OFFSET -0.000002 -8.728669 10.710558
					CHANNELS 6 Xposition Yposition Zposition Xrotation Yrotation Zrotation
					JOINT mixamorig:LeftToe_End
					{
						OFFSET -0.000003 -0.000679 9.278133
						CHANNELS 6 Xposition Yposition Zposition Xrotation Yrotation Zrotation
						End Site
						{
							OFFSET 0.000000 -0.068021 927.813477
						}
					}
				}
			}
		}
	}
}
MOTION
Frames: 3
Frame Time: 0.033333
0.000006 104.270477 1.554256 0.000010 0.000003 -0.000113 -0.000005 10.181587 0.131522 0.000001 -0.000003 0.000084 -0.000000 9.893967 -1.470711 0.000001 0.000000 -0.000000 -0.000000 9.220802 -1.370642 0.000000 -0.000000 -0.000000 0.000001 16.740433 -2.049030 0.000000 -0.000000 -0.000000 0.000000 9.617859 1.685014 0.000000 0.000000 0.000000 0.000002 22.037384 7.501101 0.000000 -0.000000 0.000000 -4.569968 11.014880 -2.160881 0.000008 0.000001 -0.000038 -10.592878 -0.524699 -2.231989 72.819809 13.266751 -9.804603 -27.841530 0.000020 0.000541 -54.152168 117.151282 79.836975 -28.328806 0.000004 0.000020 -0.000318 -0.000044 0.000007 -2.464434 -1.573907 2.682387 -32.758970 -157.175808 23.457305 -3.215266 -1.872575 1.924675 157.639851 32.054272 4.133279 -2.654948 -1.527888 1.513092 148.285606 26.158224 -41.852981 -2.018823 -1.151978 1.108063 -0.000001 -0.000004 0.000004 -9.108393 -0.517565 2.260162 105.433423 18.603316 -24.344041 -3.700063 0.000327 0.001549 102.421869 14.982221 -18.553990 -2.850091 0.000371 -0.000243 100.852852 10.956819 -13.237186 -2.772173 0.000006 -0.000017 0.000001 -0.000000 0.000001 -9.532603 0.000263 0.000265 98.418935 18.483646 -21.525317 -3.700066 0.000333 0.003994 97.792272 12.036587 -13.671842 -2.950033 0.000340 -0.001794 98.103209 10.383446 -11.947759 -2.946634 0.000004 -0.000155 0.000002 -0.000000 0.000001 -9.103711 -0.042763 -1.864827 97.489851 18.721576 -21.236359 -3.379305 0.000335 -0.000780 96.534561 7.359245 -8.266312 -2.889738 0.000357 0.000663 100.564891 3.955921 -4.813645 -2.638815 -0.000014 0.000940 0.000001 -0.000000 0.000003 -8.076750 -0.486390 -3.805994 92.455988 18.440915 -19.075335 -3.600043 0.000303 -0.003492 96.707412 6.681054 -7.120905 -2.100008 0.000329 -0.005465 99.569863 2.817006 -3.082704 -2.115780 -0.000051 -0.003670 0.000004 -0.000001 -0.000004 4.570446 11.014691 -2.160851 -0.000018 0.000010 -0.000021 10.592368 -0.524509 -2.232316 71.419163 1.415547 -1.017479 27.841846 0.000123 -0.000221 108.658392 -64.198430 82.300016 28.328808 -0.000029 0.000017 0.000019 -0.000089 0.000000 2.466022 -1.576175 2.681907 -35.266060 157.350114 -17.663368 3.217809 -1.871734 1.916378 156.364217 -29.929923 6.935908 2.656091 -1.528578 1.514445 144.834598 -27.281758 36.491894 2.020891 -1.154065 1.115137 0.000003 0.000003 0.000002 9.109390 -0.517837 2.259738 92.011459 -15.463487 15.996349 3.700045 0.000169 -0.000446 88.818899 -14.950213 14.665413 2.850063 0.000197 0.000207 86.871482 -13.321160 12.617572 2.774881 -0.000029 -0.000028 0.000003 -0.000001 -0.000001 9.533474 0.000223 -0.000090 91.621715 -14.926448 15.340986 3.700053 0.000191 -0.000369 91.961667 -14.630284 15.131304 2.950064 0.000182 -0.000172 93.015681 -18.056652 19.018838 2.952887 -0.000031 0.000065 -0.000002 0.000002 0.000001 9.104591 -0.042820 -1.865225 91.718929 -15.154950 15.612950 3.150045 0.000206 -0.000096 95.721679 -14.539798 16.052483 2.950030 0.000187 -0.000064 98.062986 -16.179371 18.594946 2.644295 0.000030 0.000058 -0.000002 0.000003 -0.000000 8.077842 -0.486729 -3.806425 78.515354 -18.789649 15.897002 3.599987 0.000186 0.014574 79.318823 -14.988365 12.880844 2.100032 0.000190 0.007544 81.930721 -13.999020 12.598918 2.125497 0.000001 0.007521 0.000000 -0.000001 -0.000001 -8.207786 -6.751667 -1.599560 -0.077001 -0.000003 0.000080 -0.000002 -44.370110 0.345938 0.153719 -0.000000 -0.000000 0.000000 -44.423679 -3.043532 -0.076700 0.000000 -0.000002 -0.000006 -8.728667 10.710559 -0.000009 -0.000000 -0.000000 -0.000001 -0.000679 9.278123 0.000000 -0.000000 -0.000000 8.207792 -6.751710 -1.599556 -0.074518 -0.000003 0.000081 -0.000002 -44.370014 0.346960 0.148822 0.000002 0.000000 -0.000001 -44.423664 -3.044403 -0.074314 0.000000 -0.000002 -0.000004 -8.728671 10.710558 0.000007 -0.000000 -0.000000 0.000000 -0.000680 9.278137 -0.000000 0.000000 -0.000001 
0.000006 104.270477 1.554256 0.000010 0.000003 -0.000113 -0.000005 10.181587 0.131522 0.000001 -0.000003 0.000084 -0.000000 9.893967 -1.470711 0.000001 0.000000 -0.000000 -0.000000 9.220802 -1.370642 0.000000 -0.000000 -0.000000 0.000001 16.740433 -2.049030 0.000000 -0.000000 -0.000000 0.000000 9.617859 1.685014 0.000000 0.000000 0.000000 0.000002 22.037384 7.501101 0.000000 -0.000000 0.000000 -4.569968 11.014880 -2.160881 0.000008 0.000001 -0.000038 -10.592874 -0.524687 -2.232008 72.581811 10.070789 -7.404061 -27.841524 0.000017 0.000542 -53.740379 117.359083 79.565803 -28.328814 0.000006 0.000019 -0.000316 -0.000043 0.000007 -2.464408 -1.573855 2.682373 -37.324914 -155.531371 12.857564 -3.215260 -1.872554 1.924642 152.850440 33.244129 16.149598 -2.654965 -1.527871 1.513074 147.352479 27.318856 -32.354910 -2.018837 -1.151996 1.108066 -0.000003 0.000000 -0.000000 -9.108364 -0.517558 2.260144 104.788742 15.162637 -19.666836 -3.700049 0.000320 0.001540 103.042945 11.904655 -14.917427 -2.850057 0.000361 -0.000236 102.282909 9.198735 -11.402674 -2.772156 -0.000016 -0.000018 0.000002 -0.000001 0.000000 -9.532587 0.000273 0.000259 97.700952 16.373440 -18.860126 -3.700070 0.000338 0.003974 97.578753 10.690018 -12.089611 -2.950041 0.000351 -0.001788 100.189101 10.145439 -12.109547 -2.946621 -0.000000 -0.000152 0.000000 0.000000 0.000001 -9.103689 -0.042754 -1.864857 95.922214 17.586755 -19.420941 -3.379320 0.000330 -0.000803 95.565425 7.270053 -8.029114 -2.889744 0.000357 0.000647 102.392192 5.039444 -6.319898 -2.638815 -0.000015 0.000941 -0.000002 -0.000000 0.000002 -8.076749 -0.486388 -3.806002 90.777237 18.132583 -18.222113 -3.600034 0.000294 -0.003505 93.198963 7.326840 -7.376831 -2.100005 0.000326 -0.005465 97.473712 3.678951 -3.949785 -2.115767 -0.000055 -0.003676 -0.000002 -0.000002 -0.000004 4.570446 11.014691 -2.160851 -0.000018 0.000010 -0.000021 10.592360 -0.524544 -2.232272 71.288098 14.605835 -10.501283 27.841852 0.000098 -0.000237 108.416392 -65.669352 83.658404 28.328840 -0.000028 0.000028 0.000020 -0.000088 -0.000001 2.466144 -1.576169 2.681879 -17.172969 157.964544 -53.904222 3.217834 -1.871795 1.916385 162.416530 -27.690299 18.025440 2.656101 -1.528644 1.514473 143.362037 -26.746775 48.256099 2.020887 -1.154083 1.115146 -0.000001 0.000007 0.000004 9.109399 -0.517843 2.259732 92.501730 -18.181955 18.966076 3.700054 0.000165 -0.000472 91.002299 -12.720549 12.960300 2.850044 0.000212 0.000203 90.150950 -9.725098 9.749368 2.774905 -0.000049 -0.000026 -0.000001 -0.000000 -0.000001 9.533478 0.000221 -0.000082 91.135494 -17.852163 18.194412 3.700058 0.000194 -0.000371 93.602292 -11.253851 11.976646 2.950068 0.000205 -0.000212 95.449332 -11.392737 12.525832 2.952865 -0.000029 0.000075 -0.000000 0.000001 0.000000 9.104601 -0.042829 -1.865214 91.354272 -17.335531 17.745694 3.150058 0.000228 -0.000078 96.331622 -11.650706 13.005910 2.950032 0.000210 -0.000081 98.675272 -10.447534 12.152614 2.644320 0.000016 0.000049 -0.000003 0.000003 -0.000001 8.077848 -0.486722 -3.806401 80.678625 -19.161655 16.830003 3.600004 0.000192 0.014580 82.046637 -15.934404 14.342354 2.100028 0.000194 0.007540 84.470240 -11.981238 11.322649 2.125490 -0.000029 0.007513 0.000000 0.000003 0.000005 -8.207786 -6.751667 -1.599560 -0.077001 -0.000003 0.000080 -0.000002 -44.370110 0.345938 0.153719 -0.000000 -0.000000 0.000000 -44.423679 -3.043532 -0.076700 0.000000 -0.000002 -0.000006 -8.728667 10.710559 -0.000009 -0.000000 -0.000000 -0.000001 -0.000679 9.278123 0.000000 -0.000000 -0.000000 8.207792 -6.751710 -1.599556 -0.074518 -0.000003 0.000081 -0.000002 -44.370014 0.346960 0.148822 0.000002 0.000000 -0.000001 -44.423664 -3.044403 -0.074314 0.000000 -0.000002 -0.000004 -8.728671 10.710558 0.000007 -0.000000 -0.000000 0.000000 -0.000680 9.278137 -0.000000 0.000000 -0.000001 
0.000006 104.270477 1.554256 0.000010 0.000003 -0.000113 -0.000005 10.181587 0.131522 0.000001 -0.000003 0.000084 -0.000000 9.893967 -1.470711 0.000001 0.000000 -0.000000 -0.000000 9.220802 -1.370642 0.000000 -0.000000 -0.000000 0.000001 16.740433 -2.049030 0.000000 -0.000000 -0.000000 0.000000 9.617859 1.685014 0.000000 0.000000 0.000000 0.000002 22.037384 7.501101 0.000000 -0.000000 0.000000 -4.569968 11.014880 -2.160881 0.000008 0.000001 -0.000038 -10.592882 -0.524722 -2.231956 72.302470 20.016465 -14.693219 -27.841520 0.000008 0.000534 -52.394835 112.532496 72.764765 -28.328814 0.000020 0.000028 -0.000322 -0.000043 0.000007 -2.464412 -1.573842 2.682365 -39.331173 -156.904731 9.038238 -3.215262 -1.872550 1.924642 152.287715 33.353928 17.722369 -2.654967 -1.527899 1.513057 147.327153 27.374304 -31.820526 -2.018819 -1.152020 1.108072 -0.000003 -0.000006 0.000002 -9.108389 -0.517554 2.260138 104.526121 14.803737 -19.116943 -3.700071 0.000311 0.001539 103.155780 11.976806 -15.037636 -2.850070 0.000368 -0.000249 102.271769 9.402485 -11.652368 -2.772168 0.000001 -0.000023 -0.000000 0.000001 -0.000001 -9.532589 0.000263 0.000260 97.604496 15.678409 -18.038332 -3.700074 0.000340 0.003974 96.996684 10.344863 -11.578565 -2.950049 0.000337 -0.001793 99.639244 10.151954 -12.000694 -2.946650 -0.000014 -0.000157 -0.000002 0.000001 0.000001 -9.103703 -0.042751 -1.864871 95.829781 16.907916 -18.642479 -3.379313 0.000330 -0.000809 95.649156 6.751543 -7.468887 -2.889747 0.000356 0.000662 102.460542 5.014410 -6.296453 -2.638818 -0.000002 0.000940 -0.000000 -0.000000 0.000000 -8.076756 -0.486378 -3.805996 90.376141 17.576923 -17.538700 -3.600025 0.000293 -0.003498 93.455621 6.867566 -6.924606 -2.100003 0.000336 -0.005455 97.933281 3.540656 -3.823509 -2.115792 -0.000053 -0.003677 -0.000001 -0.000001 0.000000 4.570446 11.014691 -2.160851 -0.000018 0.000010 -0.000021 10.592362 -0.524525 -2.232283 71.224584 5.905317 -4.231461 27.841843 0.000102 -0.000205 109.248350 -67.429362 86.445292 28.328833 -0.000029 0.000020 0.000020 -0.000089 -0.000000 2.466156 -1.576141 2.681889 -15.678371 158.051315 -56.575389 3.217844 -1.871787 1.916386 161.223624 -26.430489 23.932472 2.656097 -1.528640 1.514457 140.985719 -27.428407 48.419658 2.020887 -1.154068 1.115147 -0.000001 0.000002 0.000004 9.109390 -0.517821 2.259731 93.853035 -18.121161 19.346099 3.700047 0.000185 -0.000474 92.549767 -11.765835 12.314851 2.850057 0.000219 0.000200 91.337920 -8.691049 8.894313 2.774864 -0.000049 -0.000025 -0.000001 0.000004 -0.000000 9.533482 0.000233 -0.000084 91.690310 -16.919174 17.408983 3.700042 0.000206 -0.000394 94.121277 -9.819279 10.545472 2.950053 0.000214 -0.000199 95.428869 -10.017538 11.011986 2.952868 -0.000048 0.000060 -0.000003 -0.000002 -0.000001 9.104586 -0.042825 -1.865224 91.117661 -16.584534 16.908560 3.150069 0.000231 -0.000098 96.863707 -10.921731 12.307160 2.950011 0.000222 -0.000092 98.844025 -9.761391 11.389679 2.644331 0.000032 0.000055 0.000002 -0.000001 0.000001 8.077838 -0.486702 -3.806409 80.562867 -18.123393 15.904594 3.600015 0.000190 0.014582 82.187653 -15.557011 14.045203 2.100034 0.000196 0.007541 84.092340 -11.759077 11.046485 2.125501 -0.000013 0.007513 0.000001 0.000001 0.000001 -8.207786 -6.751667 -1.599560 -0.077001 -0.000003 0.000080 -0.000002 -44.370110 0.345938 0.153719 -0.000000 -0.000000 0.000000 -44.423679 -3.043532 -0.076700 0.000000 -0.000002 -0.000006 -8.728667 10.710559 -0.000009 -0.000000 -0.000000 -0.000001 -0.000679 9.278123 0.000000 -0.000000 -0.000000 8.207792 -6.751710 -1.599556 -0.074518 -0.000003 0.000081 -0.000002 -44.370014 0.346960 0.148822 0.000002 0.000000 -0.000001 -44.423664 -3.044403 -0.074314 0.000000 -0.000002 -0.000004 -8.728671 10.710558 0.000007 -0.000000 -0.000000 0.000000 -0.000680 9.278137 -0.000000 0.000000 -0.000001 
